<svg width="35" height="36" viewBox="0 0 35 36" fill="none" xmlns="http://www.w3.org/2000/svg">
<path d="M0 1.66667C0 1.02233 0.522334 0.5 1.16667 0.5H4.66667C5.20201 0.5 5.66866 0.864347 5.7985 1.38371L6.74424 5.16667H33.8333C34.1804 5.16667 34.5094 5.32119 34.7311 5.58826C34.9527 5.85533 35.044 6.20722 34.98 6.54834L31.48 25.215C31.3765 25.7668 30.8947 26.1667 30.3333 26.1667H28H11.6667H9.33333C8.77191 26.1667 8.29011 25.7668 8.18665 25.215L4.69306 6.58254L3.75576 2.83333H1.16667C0.522334 2.83333 0 2.311 0 1.66667ZM11.6667 26.1667C9.08934 26.1667 7 28.256 7 30.8333C7 33.4107 9.08934 35.5 11.6667 35.5C14.244 35.5 16.3333 33.4107 16.3333 30.8333C16.3333 28.256 14.244 26.1667 11.6667 26.1667ZM28 26.1667C25.4227 26.1667 23.3333 28.256 23.3333 30.8333C23.3333 33.4107 25.4227 35.5 28 35.5C30.5773 35.5 32.6667 33.4107 32.6667 30.8333C32.6667 28.256 30.5773 26.1667 28 26.1667ZM11.6667 28.5C12.9553 28.5 14 29.5447 14 30.8333C14 32.122 12.9553 33.1667 11.6667 33.1667C10.378 33.1667 9.33333 32.122 9.33333 30.8333C9.33333 29.5447 10.378 28.5 11.6667 28.5ZM28 28.5C29.2887 28.5 30.3333 29.5447 30.3333 30.8333C30.3333 32.122 29.2887 33.1667 28 33.1667C26.7113 33.1667 25.6667 32.122 25.6667 30.8333C25.6667 29.5447 26.7113 28.5 28 28.5Z" fill="#E40E20"/>
</svg>
