<svg width="40" height="40" viewBox="0 0 40 40" fill="none" xmlns="http://www.w3.org/2000/svg">
<path d="M24.8728 19.665C24.8728 21.0462 24.3241 22.3708 23.3475 23.3475C22.3708 24.3241 21.0462 24.8728 19.665 24.8728C18.2838 24.8728 16.9592 24.3241 15.9825 23.3475C15.0059 22.3708 14.4572 21.0462 14.4572 19.665C14.4572 19.3682 14.4884 19.0783 14.5422 18.797H12.7212V25.7356C12.7212 26.2182 13.1118 26.6087 13.5944 26.6087H25.7373C25.9686 26.6083 26.1902 26.5161 26.3536 26.3524C26.517 26.1887 26.6088 25.9669 26.6087 25.7356V18.797H24.7878C24.8416 19.0783 24.8728 19.3682 24.8728 19.665ZM19.665 23.1369C20.121 23.1368 20.5726 23.0468 20.9939 22.8722C21.4152 22.6976 21.798 22.4417 22.1203 22.1191C22.4427 21.7966 22.6984 21.4137 22.8729 20.9923C23.0473 20.5709 23.137 20.1193 23.1369 19.6633C23.1368 19.2072 23.0468 18.7557 22.8722 18.3344C22.6976 17.9131 22.4417 17.5303 22.1191 17.2079C21.7966 16.8855 21.4137 16.6298 20.9923 16.4554C20.5709 16.281 20.1193 16.1913 19.6633 16.1914C18.7422 16.1916 17.859 16.5577 17.2079 17.2091C16.5568 17.8606 16.1912 18.744 16.1914 19.665C16.1916 20.586 16.5577 21.4692 17.2091 22.1203C17.8606 22.7715 18.744 23.1371 19.665 23.1369ZM23.8312 16.0195H25.9126C26.0509 16.0195 26.1836 15.9647 26.2815 15.8671C26.3794 15.7695 26.4347 15.637 26.4352 15.4987V13.4174C26.4352 13.2788 26.3801 13.1459 26.2821 13.0479C26.1841 12.9499 26.0512 12.8948 25.9126 12.8948H23.8312C23.6927 12.8948 23.5598 12.9499 23.4618 13.0479C23.3638 13.1459 23.3087 13.2788 23.3087 13.4174V15.4987C23.3105 15.7852 23.5448 16.0195 23.8312 16.0195ZM19.665 3C15.2452 3 11.0064 4.75577 7.88106 7.88106C4.75577 11.0064 3 15.2452 3 19.665C3 24.0848 4.75577 28.3236 7.88106 31.4489C11.0064 34.5742 15.2452 36.33 19.665 36.33C21.8535 36.33 24.0205 35.8989 26.0424 35.0615C28.0643 34.224 29.9014 32.9964 31.4489 31.4489C32.9964 29.9014 34.224 28.0643 35.0615 26.0424C35.8989 24.0205 36.33 21.8535 36.33 19.665C36.33 17.4765 35.8989 15.3095 35.0615 13.2876C34.224 11.2657 32.9964 9.42855 31.4489 7.88106C29.9014 6.33358 28.0643 5.10604 26.0424 4.26855C24.0205 3.43105 21.8535 3 19.665 3ZM28.3447 26.4161C28.3447 27.4767 27.4767 28.3447 26.4161 28.3447H12.9139C11.8533 28.3447 10.9853 27.4767 10.9853 26.4161V12.9139C10.9853 11.8533 11.8533 10.9853 12.9139 10.9853H26.4161C27.4767 10.9853 28.3447 11.8533 28.3447 12.9139V26.4161Z" fill="#E40E20"/>
</svg>
