<svg width="253" height="63" viewBox="0 0 253 63" fill="none" xmlns="http://www.w3.org/2000/svg">
<g clip-path="url(#clip0_114_169)">
<path d="M65.8115 11.0529V35.3125H61.8893V0C68.609 8.15678 75.307 16.289 82.0991 24.5316V0.465541H110.848C110.416 1.40642 109.897 2.27135 109.62 3.20979C109.282 4.35404 108.654 4.64561 107.53 4.58191C105.582 4.4741 103.624 4.5476 101.672 4.54025C101.355 4.54025 101.039 4.50105 100.824 4.4888C100.824 6.06184 100.824 7.61528 100.824 9.16871C100.82 17.6808 100.81 26.1953 100.82 34.7073C100.82 35.1998 100.704 35.3689 100.197 35.3517C99.0721 35.3125 97.9449 35.3395 96.7549 35.3395V4.56476H86.0503V35.7634C79.2823 27.5012 72.5698 19.3077 65.8067 11.0529H65.8115Z" fill="#E40E20"/>
<path d="M150.515 35.3394C149.25 35.3394 148.055 35.3517 146.858 35.3198C146.747 35.3174 146.559 35.0503 146.552 34.8984C146.515 34.009 146.515 33.1171 146.513 32.2252C146.511 21.6917 146.508 11.1607 146.508 0.627202C146.508 0.592899 146.523 0.556145 146.549 0.450786C146.716 0.443435 146.904 0.426284 147.092 0.426284C150.587 0.426284 154.082 0.391981 157.575 0.436085C159.726 0.463037 161.852 0.637003 163.838 1.66854C167.729 3.69242 170.042 6.84095 170.621 11.244C171.285 16.2914 168.936 20.9836 164.551 23.4534C164.01 23.7573 163.433 23.9974 162.798 24.3037C165.451 27.9814 168.067 31.6078 170.732 35.3027C170.522 35.3174 170.387 35.3345 170.254 35.3345C168.946 35.3345 167.638 35.3541 166.329 35.3198C166.088 35.3125 165.765 35.163 165.625 34.9695C163.293 31.7891 160.99 28.5891 158.661 25.4063C158.536 25.2347 158.26 25.0828 158.055 25.0804C155.707 25.0632 153.361 25.0853 151.012 25.0706C150.607 25.0706 150.539 25.2421 150.539 25.5925C150.539 28.5572 150.522 31.522 150.513 34.4868C150.513 34.7416 150.513 34.994 150.513 35.3321L150.515 35.3394ZM150.525 20.9052C150.706 20.9224 150.826 20.9444 150.949 20.9444C153.493 20.9469 156.037 20.9714 158.581 20.9346C159.38 20.9224 160.211 20.8587 160.969 20.621C166.935 18.7539 168.787 11.4596 164.386 7.05167C162.603 5.26301 160.394 4.62596 157.98 4.5745C155.724 4.52795 153.464 4.58185 151.208 4.55C150.667 4.54265 150.505 4.68476 150.51 5.24096C150.532 9.40633 150.525 13.5693 150.525 17.7346C150.525 18.7686 150.525 19.8051 150.525 20.9028V20.9052Z" fill="#E40E20"/>
<path d="M180.478 19.9472C180.478 20.3662 180.478 20.7068 180.478 21.0498C180.483 24.2327 180.503 27.4155 180.478 30.5983C180.474 31.157 180.645 31.3187 181.178 31.3163C185.748 31.3065 190.317 31.3261 194.886 31.3089C195.446 31.3089 195.755 31.4682 195.994 31.9999C196.488 33.1 197.063 34.1634 197.635 35.3003H176.486V0.470459H197.63C197.174 1.40399 196.749 2.29832 196.307 3.18285C195.516 4.76814 195.986 4.54517 194.174 4.55007C189.839 4.56477 185.501 4.56722 181.166 4.55007C180.64 4.55007 180.471 4.66768 180.476 5.23368C180.5 8.59783 180.493 11.9644 180.466 15.3286C180.462 15.8309 180.71 15.8333 181.065 15.8333C184.934 15.8284 188.806 15.8309 192.675 15.8309C193.158 15.8309 193.645 15.8603 194.125 15.8186C194.601 15.777 194.7 15.9877 194.69 16.4165C194.668 17.399 194.671 18.3816 194.697 19.3616C194.71 19.8027 194.589 19.957 194.125 19.9546C189.86 19.9374 185.595 19.9448 181.333 19.9448C181.084 19.9448 180.836 19.9448 180.481 19.9448L180.478 19.9472Z" fill="#E40E20"/>
<path d="M56.6299 0.460693C56.0071 1.75441 55.4351 2.98442 54.8124 4.18992C54.7182 4.37369 54.3996 4.52561 54.1752 4.53541C53.2821 4.57706 52.3842 4.55991 51.4887 4.55991C47.6534 4.55991 43.8205 4.55991 39.9851 4.55991C39.862 4.55991 39.7365 4.55991 39.5651 4.55991V15.8138H53.7093C53.7093 17.1467 53.7166 18.3938 53.6948 19.6434C53.6948 19.7488 53.4897 19.9105 53.3593 19.9375C53.1373 19.984 52.8959 19.9424 52.6642 19.9424C48.4885 19.9424 44.3153 19.9424 40.1396 19.9448C39.9634 19.9448 39.7872 19.9448 39.5313 19.9448C39.5313 20.2144 39.5313 20.4422 39.5313 20.6701C39.5265 24.071 39.5289 27.4719 39.5048 30.8728C39.5024 31.2771 39.6617 31.3114 39.9779 31.3114C44.4384 31.3089 48.9013 31.3432 53.3617 31.2942C54.3007 31.2844 54.8727 31.478 55.2275 32.4311C55.592 33.4063 56.1447 34.3105 56.6395 35.2954H35.4836V0.460693H56.6323H56.6299Z" fill="#E40E20"/>
<path d="M116.113 0.428801C117.375 0.428801 118.555 0.438602 119.736 0.4239C120.131 0.419 120.103 0.664022 120.103 0.926195C120.105 3.38131 120.112 5.83643 120.112 8.29155C120.112 13.2385 120.122 18.1855 120.105 23.1325C120.098 25.301 120.556 27.3224 122.077 28.9028C124.145 31.0541 126.646 32.3527 129.67 31.6201C133.419 30.711 136.354 27.9251 136.337 23.5956C136.306 16.12 136.33 8.64438 136.33 1.16877C136.33 0.950697 136.33 0.732628 136.33 0.472905H140.373C140.382 0.671372 140.399 0.847788 140.399 1.0242C140.402 8.38956 140.406 15.7574 140.404 23.1227C140.404 26.4183 139.376 29.3291 137.199 31.7965C133.416 36.0868 127.088 37.1772 122.2 34.2467C118.748 32.1763 116.714 29.0571 116.219 24.9726C116.142 24.3429 116.118 23.7059 116.118 23.0713C116.11 15.7598 116.113 8.44836 116.113 1.13691C116.113 0.921295 116.113 0.708126 116.113 0.428801Z" fill="#E40E20"/>
<path d="M15.1459 35.7488C10.0651 23.902 5.04943 12.2071 0 0.428906C1.4289 0.428906 2.74919 0.419106 4.06947 0.446058C4.20223 0.448508 4.38808 0.649426 4.45325 0.80134C7.26278 7.32137 10.0602 13.8463 12.8625 20.3712C13.5335 21.9345 14.2118 23.4977 14.8876 25.0585C14.9504 25.2031 15.0179 25.3452 15.129 25.5853C15.2714 25.3084 15.3872 25.1124 15.4765 24.9041C18.7736 17.2521 22.1094 9.61722 25.3268 1.93089C25.8361 0.710682 26.4081 0.250041 27.6584 0.409305C28.4863 0.514664 29.3359 0.428906 30.2942 0.428906C25.2447 12.2071 20.2267 23.9093 15.1483 35.7513L15.1459 35.7488Z" fill="#E40E20"/>
<path d="M252.399 35.3077H229.249V0.470459H233.191C233.191 0.686078 233.191 0.879645 233.191 1.07566C233.201 10.9549 233.213 20.8318 233.208 30.711C233.208 31.1888 233.326 31.3236 233.804 31.3236C239.143 31.3162 244.485 31.3359 249.824 31.331C250.289 31.331 250.526 31.4951 250.721 31.9166C251.245 33.0437 251.82 34.1487 252.399 35.3126V35.3077Z" fill="#E40E20"/>
<path d="M202.861 0.446045H206.846V31.3212C207.442 31.3212 207.975 31.3212 208.506 31.3212C212.788 31.3237 217.07 31.3359 221.349 31.3212C221.847 31.3212 222.122 31.4756 222.337 31.9436C222.848 33.0584 223.425 34.1439 224.002 35.2955H202.861V0.446045Z" fill="#E40E20"/>
<path d="M243.42 0.450945H247.35C247.366 0.607759 247.395 0.747422 247.395 0.884634C247.4 9.39669 247.403 17.9112 247.403 26.4233C247.403 27.1289 247.393 27.1265 246.691 27.1314C245.795 27.1387 244.897 27.1191 244.004 27.1657C243.524 27.1902 243.391 27.0334 243.394 26.5556C243.408 21.9541 243.401 17.3501 243.403 12.7486C243.406 8.85519 243.415 4.96425 243.423 1.07085C243.423 0.874833 243.423 0.678816 243.423 0.446045L243.42 0.450945Z" fill="#E40E20"/>
<path d="M15.17 62.8898L20.9629 50.0261H22.2856L28.0784 62.8898H26.6664L21.3442 50.8175H21.8873L16.5651 62.8898H15.1724H15.17ZM17.4509 59.4546L17.8492 58.352H25.2158L25.614 59.4546H17.4509Z" fill="#E40E20"/>
<path d="M47.5906 63C45.9735 63 44.699 62.5296 43.7698 61.5838C42.8405 60.6405 42.3771 59.2439 42.3771 57.3939V50.0237H43.7167V57.3376C43.7167 58.8567 44.0546 59.9789 44.7304 60.7017C45.4062 61.4245 46.3597 61.7847 47.5906 61.7847C48.8216 61.7847 49.7919 61.4245 50.4677 60.7017C51.1436 59.9789 51.4815 58.8592 51.4815 57.3376V50.0237H52.7849V57.3939C52.7849 59.2439 52.3239 60.6405 51.3994 61.5838C50.4774 62.5271 49.2054 63 47.5882 63H47.5906Z" fill="#E40E20"/>
<path d="M71.614 62.8898V51.2022H67.1608V50.0261H77.4069V51.2022H72.9536V62.8898H71.614Z" fill="#E40E20"/>
<path d="M97.4815 62.9999C96.5281 62.9999 95.6447 62.8382 94.8288 62.5123C94.013 62.1889 93.3082 61.7283 92.7096 61.1353C92.1134 60.5424 91.6476 59.849 91.3169 59.0575C90.9838 58.2686 90.8197 57.4012 90.8197 56.4579C90.8197 55.5145 90.9862 54.6471 91.3169 53.8582C91.6476 53.0668 92.1134 52.3758 92.7096 51.7804C93.3082 51.1874 94.0106 50.7268 94.8192 50.4034C95.6278 50.0799 96.5136 49.9158 97.4791 49.9158C98.4445 49.9158 99.3135 50.0775 100.122 50.4034C100.931 50.7292 101.633 51.185 102.232 51.773C102.83 52.3611 103.294 53.0545 103.624 53.8508C103.955 54.6471 104.122 55.517 104.122 56.4603C104.122 57.4036 103.955 58.2735 103.624 59.0698C103.291 59.8661 102.828 60.5595 102.232 61.1476C101.635 61.7356 100.931 62.1914 100.122 62.5172C99.3135 62.8431 98.4325 63.0048 97.4791 63.0048L97.4815 62.9999ZM97.4815 61.7871C98.2418 61.7871 98.9442 61.6548 99.591 61.3926C100.235 61.1304 100.798 60.7555 101.276 60.2704C101.754 59.7852 102.123 59.2242 102.388 58.5797C102.654 57.9378 102.787 57.2297 102.787 56.4579C102.787 55.686 102.654 54.9779 102.388 54.336C102.123 53.694 101.751 53.1305 101.276 52.6453C100.798 52.1626 100.238 51.7877 99.591 51.5231C98.9442 51.2609 98.2418 51.1286 97.4815 51.1286C96.7212 51.1286 96.014 51.2609 95.3647 51.5231C94.713 51.7877 94.1482 52.1602 93.6727 52.6453C93.1972 53.1305 92.8231 53.6916 92.5503 54.336C92.2776 54.9804 92.1424 55.686 92.1424 56.4579C92.1424 57.2297 92.2776 57.9231 92.5503 58.5699C92.8206 59.2192 93.1948 59.7852 93.6727 60.2704C94.1482 60.7555 94.713 61.128 95.3647 61.3926C96.0164 61.6572 96.7212 61.7871 97.4815 61.7871Z" fill="#E40E20"/>
<path d="M119.712 62.8898V50.0261H120.817L126.61 60.0598H126.031L131.768 50.0261H132.873V62.8898H131.587V52.0672H131.893L126.607 61.2555H125.975L120.653 52.0672H120.996V62.8898H119.709H119.712Z" fill="#E40E20"/>
<path d="M155.12 62.9999C154.167 62.9999 153.283 62.8382 152.468 62.5123C151.652 62.1889 150.947 61.7283 150.348 61.1353C149.752 60.5424 149.286 59.849 148.956 59.0575C148.623 58.2686 148.458 57.4012 148.458 56.4579C148.458 55.5145 148.625 54.6471 148.956 53.8582C149.286 53.0668 149.752 52.3758 150.348 51.7804C150.947 51.1874 151.649 50.7268 152.458 50.4034C153.267 50.0799 154.152 49.9158 155.12 49.9158C156.088 49.9158 156.955 50.0775 157.763 50.4034C158.572 50.7292 159.274 51.185 159.873 51.773C160.471 52.3611 160.935 53.0545 161.268 53.8508C161.599 54.6471 161.765 55.517 161.765 56.4603C161.765 57.4036 161.599 58.2735 161.268 59.0698C160.935 59.8661 160.471 60.5595 159.873 61.1476C159.274 61.7356 158.572 62.1914 157.763 62.5172C156.955 62.8431 156.074 63.0048 155.12 63.0048V62.9999ZM155.12 61.7871C155.881 61.7871 156.583 61.6548 157.23 61.3926C157.874 61.1304 158.437 60.7555 158.915 60.2704C159.39 59.7877 159.762 59.2242 160.027 58.5797C160.293 57.9378 160.426 57.2297 160.426 56.4579C160.426 55.686 160.293 54.9779 160.027 54.336C159.762 53.694 159.39 53.1305 158.915 52.6453C158.437 52.1626 157.877 51.7877 157.23 51.5231C156.585 51.2609 155.881 51.1286 155.12 51.1286C154.36 51.1286 153.653 51.2609 153.001 51.5231C152.349 51.7877 151.785 52.1602 151.309 52.6453C150.831 53.1305 150.457 53.6916 150.187 54.336C149.916 54.9804 149.779 55.686 149.779 56.4579C149.779 57.2297 149.914 57.9231 150.187 58.5699C150.457 59.2192 150.831 59.7852 151.309 60.2704C151.785 60.7555 152.349 61.128 153.001 61.3926C153.653 61.6572 154.358 61.7871 155.12 61.7871Z" fill="#E40E20"/>
<path d="M179.631 62.8898V51.2022H175.178V50.0261H185.424V51.2022H180.971V62.8898H179.631Z" fill="#E40E20"/>
<path d="M200.14 62.8898V50.0261H204.883C205.957 50.0261 206.879 50.2001 207.652 50.5505C208.424 50.8984 209.018 51.4031 209.435 52.0574C209.851 52.714 210.061 53.5054 210.061 54.4365C210.061 55.3676 209.853 56.1247 209.435 56.7789C209.02 57.4356 208.424 57.9379 207.652 58.2858C206.879 58.6362 205.955 58.8102 204.883 58.8102H200.881L201.478 58.1853V62.8898H200.138H200.14ZM201.48 58.2956L200.884 57.6537H204.847C206.114 57.6537 207.077 57.3719 207.734 56.8083C208.39 56.2448 208.721 55.4558 208.721 54.439C208.721 53.4221 208.393 52.6136 207.734 52.05C207.075 51.4865 206.114 51.2047 204.847 51.2047H200.884L201.48 50.5627V58.3005V58.2956ZM208.793 62.8898L205.535 58.2221H206.983L210.259 62.8898H208.793Z" fill="#E40E20"/>
<path d="M225.81 62.8898V50.0261H227.149V62.8898H225.81Z" fill="#E40E20"/>
<path d="M242.609 62.8898V61.9513L251.407 50.6877L251.552 51.2022H242.737V50.0261H252.783V50.9646L244.002 62.2282L243.838 61.7137H252.998V62.8898H242.607H242.609Z" fill="#E40E20"/>
</g>
<defs>
<clipPath id="clip0_114_169">
<rect width="253" height="63" fill="white"/>
</clipPath>
</defs>
</svg>
