<svg width="174" height="43" viewBox="0 0 174 43" fill="none" xmlns="http://www.w3.org/2000/svg">
<g clip-path="url(#clip0_114_1073)">
<path d="M45.2617 7.54406V24.1022H42.5642V0C47.1856 5.56732 51.7921 11.1179 56.4634 16.7438V0.31775H76.2357C75.9386 0.959941 75.5817 1.55029 75.3908 2.19081C75.1584 2.9718 74.7268 3.17082 73.9532 3.12733C72.6136 3.05375 71.2673 3.10392 69.9244 3.0989C69.7069 3.0989 69.4894 3.07215 69.3417 3.06378C69.3417 4.13745 69.3417 5.19773 69.3417 6.25801C69.3384 12.0678 69.3317 17.8793 69.3384 23.6891C69.3384 24.0253 69.2587 24.1407 68.9101 24.129C68.1365 24.1022 67.3613 24.1206 66.5429 24.1206V3.11563H59.1808V24.4099C54.5262 18.7707 49.9097 13.1783 45.2584 7.54406H45.2617Z" fill="white"/>
<path d="M103.516 24.1205C102.646 24.1205 101.825 24.1289 101.001 24.1071C100.925 24.1055 100.795 23.9232 100.79 23.8195C100.766 23.2124 100.766 22.6037 100.764 21.9949C100.762 14.8054 100.761 7.61756 100.761 0.428036C100.761 0.404623 100.771 0.379537 100.789 0.307625C100.903 0.302608 101.033 0.290901 101.162 0.290901C103.566 0.290901 105.97 0.267488 108.372 0.297591C109.851 0.315987 111.313 0.434725 112.679 1.13879C115.355 2.52017 116.946 4.66917 117.344 7.67442C117.801 11.1195 116.185 14.3221 113.169 16.0078C112.797 16.2152 112.401 16.3791 111.964 16.5882C113.788 19.0984 115.588 21.5735 117.42 24.0954C117.276 24.1055 117.183 24.1172 117.092 24.1172C116.192 24.1172 115.292 24.1305 114.393 24.1071C114.227 24.1021 114.004 24.0001 113.908 23.868C112.304 21.6972 110.721 19.5131 109.119 17.3407C109.032 17.2237 108.843 17.12 108.702 17.1183C107.087 17.1066 105.473 17.1216 103.858 17.1116C103.579 17.1116 103.533 17.2287 103.533 17.4678C103.533 19.4914 103.521 21.515 103.515 23.5385C103.515 23.7125 103.515 23.8847 103.515 24.1155L103.516 24.1205ZM103.523 14.2686C103.647 14.2803 103.73 14.2953 103.815 14.2953C105.565 14.297 107.314 14.3137 109.064 14.2886C109.613 14.2803 110.184 14.2368 110.706 14.0746C114.809 12.8002 116.082 7.82159 113.056 4.81299C111.83 3.59216 110.311 3.15734 108.651 3.12222C107.099 3.09045 105.545 3.12724 103.993 3.1055C103.621 3.10048 103.51 3.19748 103.513 3.57711C103.528 6.42014 103.523 9.2615 103.523 12.1045C103.523 12.8103 103.523 13.5177 103.523 14.2669V14.2686Z" fill="white"/>
<path d="M124.124 13.6147C124.124 13.9007 124.124 14.1332 124.124 14.3673C124.127 16.5397 124.14 18.7121 124.124 20.8845C124.12 21.2658 124.238 21.3762 124.605 21.3745C127.747 21.3678 130.89 21.3812 134.032 21.3695C134.417 21.3695 134.63 21.4782 134.794 21.8411C135.134 22.592 135.529 23.3178 135.923 24.0938H121.378V0.321045H135.92C135.606 0.958218 135.314 1.56863 135.01 2.17236C134.465 3.25438 134.789 3.1022 133.542 3.10554C130.561 3.11558 127.578 3.11725 124.597 3.10554C124.235 3.10554 124.119 3.18582 124.122 3.57213C124.138 5.8683 124.133 8.16614 124.115 10.4623C124.112 10.8051 124.283 10.8068 124.527 10.8068C127.188 10.8035 129.851 10.8051 132.512 10.8051C132.844 10.8051 133.179 10.8252 133.509 10.7968C133.836 10.7683 133.904 10.9122 133.898 11.2048C133.883 11.8755 133.884 12.5461 133.903 13.215C133.911 13.5161 133.828 13.6214 133.509 13.6197C130.576 13.608 127.643 13.6131 124.711 13.6131C124.54 13.6131 124.369 13.6131 124.125 13.6131L124.124 13.6147Z" fill="white"/>
<path d="M38.947 0.314453C38.5187 1.19747 38.1253 2.037 37.697 2.8598C37.6323 2.98523 37.4132 3.08892 37.2588 3.09561C36.6446 3.12404 36.0271 3.11233 35.4112 3.11233C32.7735 3.11233 30.1374 3.11233 27.4996 3.11233C27.415 3.11233 27.3286 3.11233 27.2108 3.11233V10.7935H36.9384C36.9384 11.7033 36.9434 12.5545 36.9285 13.4074C36.9285 13.4794 36.7874 13.5897 36.6977 13.6081C36.545 13.6399 36.379 13.6115 36.2196 13.6115C33.3478 13.6115 30.4777 13.6115 27.6059 13.6131C27.4847 13.6131 27.3635 13.6131 27.1875 13.6131C27.1875 13.7971 27.1875 13.9526 27.1875 14.1082C27.1842 16.4294 27.1859 18.7507 27.1693 21.0719C27.1676 21.3479 27.2772 21.3713 27.4946 21.3713C30.5623 21.3696 33.6317 21.393 36.6994 21.3596C37.3451 21.3529 37.7385 21.485 37.9826 22.1355C38.2332 22.8012 38.6134 23.4183 38.9537 24.0906H24.4037V0.314453H38.9487H38.947Z" fill="white"/>
<path d="M79.8562 0.292701C80.7243 0.292701 81.5361 0.29939 82.3478 0.289356C82.6201 0.286011 82.6001 0.453248 82.6001 0.632192C82.6018 2.30791 82.6068 3.98362 82.6068 5.65934C82.6068 9.03586 82.6134 12.4124 82.6018 15.7889C82.5968 17.2689 82.9122 18.6486 83.958 19.7273C85.3807 21.1957 87.1004 22.082 89.1804 21.582C91.7584 20.9615 93.777 19.06 93.7653 16.105C93.7438 11.0026 93.7604 5.90016 93.7604 0.797757C93.7604 0.648916 93.7604 0.500075 93.7604 0.322803H96.5409C96.5475 0.458265 96.5591 0.578676 96.5591 0.699087C96.5608 5.72623 96.5641 10.7551 96.5624 15.7822C96.5624 18.0315 95.8553 20.0183 94.358 21.7024C91.7567 24.6307 87.4042 25.3749 84.0427 23.3748C81.6689 21.9616 80.2695 19.8327 79.9292 17.0448C79.8761 16.615 79.8595 16.1802 79.8595 15.7471C79.8545 10.7567 79.8562 5.76637 79.8562 0.776016C79.8562 0.628847 79.8562 0.483351 79.8562 0.292701Z" fill="white"/>
<path d="M10.4165 24.3999C6.92222 16.314 3.47273 8.33176 0 0.292672C0.982723 0.292672 1.89075 0.285983 2.79877 0.304379C2.89007 0.306051 3.01789 0.443185 3.06271 0.546872C4.99495 4.99705 6.9189 9.45057 8.84616 13.9041C9.30765 14.9711 9.77411 16.038 10.2389 17.1033C10.2821 17.202 10.3285 17.299 10.4049 17.4629C10.5028 17.2739 10.5825 17.1401 10.6439 16.998C12.9115 11.7752 15.2056 6.56406 17.4184 1.31784C17.7687 0.484995 18.1621 0.170589 19.022 0.279293C19.5914 0.351205 20.1757 0.292672 20.8347 0.292672C17.362 8.33176 13.9108 16.319 10.4182 24.4016L10.4165 24.3999Z" fill="white"/>
<path d="M173.587 24.0988H157.666V0.321045H160.376C160.376 0.468214 160.376 0.600331 160.376 0.734121C160.383 7.47712 160.391 14.2184 160.388 20.9614C160.388 21.2876 160.469 21.3795 160.798 21.3795C164.47 21.3745 168.144 21.3879 171.815 21.3846C172.136 21.3846 172.298 21.4966 172.433 21.7843C172.793 22.5535 173.188 23.3078 173.587 24.1022V24.0988Z" fill="white"/>
<path d="M139.517 0.304443H142.257V21.378C142.667 21.378 143.034 21.378 143.399 21.378C146.344 21.3797 149.289 21.388 152.232 21.378C152.574 21.378 152.764 21.4833 152.911 21.8028C153.263 22.5637 153.66 23.3046 154.057 24.0906H139.517V0.304443Z" fill="white"/>
<path d="M167.411 0.307788H170.114C170.126 0.41482 170.145 0.510145 170.145 0.603798C170.149 6.41361 170.15 12.2251 170.15 18.0349C170.15 18.5166 170.144 18.5149 169.661 18.5182C169.045 18.5233 168.427 18.5099 167.813 18.5417C167.483 18.5584 167.392 18.4513 167.393 18.1252C167.403 14.9845 167.398 11.8421 167.4 8.70142C167.402 6.04402 167.408 3.3883 167.413 0.730898C167.413 0.597108 167.413 0.463319 167.413 0.304443L167.411 0.307788Z" fill="white"/>
<path d="M10.4331 42.9247L14.4171 34.1448H15.3268L19.3108 42.9247H18.3397L14.6794 34.685H15.0529L11.3926 42.9247H10.4348H10.4331ZM12.0018 40.5801L12.2757 39.8275H17.342L17.6159 40.5801H12.0018Z" fill="white"/>
<path d="M32.7303 42.9999C31.6181 42.9999 30.7416 42.6788 30.1025 42.0333C29.4634 41.3894 29.1447 40.4362 29.1447 39.1736V34.1431H30.066V39.1351C30.066 40.172 30.2984 40.9379 30.7632 41.4313C31.228 41.9246 31.8837 42.1704 32.7303 42.1704C33.5769 42.1704 34.2442 41.9246 34.709 41.4313C35.1738 40.9379 35.4062 40.1736 35.4062 39.1351V34.1431H36.3026V39.1736C36.3026 40.4362 35.9856 41.3894 35.3498 42.0333C34.7157 42.6772 33.8408 42.9999 32.7286 42.9999H32.7303Z" fill="white"/>
<path d="M49.2523 42.9247V34.9475H46.1896V34.1448H53.2363V34.9475H50.1736V42.9247H49.2523Z" fill="white"/>
<path d="M67.0426 43C66.3869 43 65.7793 42.8897 65.2182 42.6672C64.6572 42.4465 64.1724 42.1321 63.7608 41.7274C63.3507 41.3227 63.0303 40.8494 62.8029 40.3092C62.5738 39.7707 62.461 39.1787 62.461 38.5348C62.461 37.8909 62.5755 37.2989 62.8029 36.7604C63.0303 36.2202 63.3507 35.7486 63.7608 35.3423C64.1724 34.9375 64.6555 34.6231 65.2116 34.4024C65.7677 34.1816 66.3769 34.0696 67.0409 34.0696C67.7049 34.0696 68.3025 34.18 68.8586 34.4024C69.4147 34.6248 69.8978 34.9359 70.3095 35.3372C70.7212 35.7386 71.0399 36.2119 71.2673 36.7554C71.4947 37.2989 71.6093 37.8926 71.6093 38.5365C71.6093 39.1803 71.4947 39.774 71.2673 40.3176C71.0382 40.8611 70.7195 41.3344 70.3095 41.7357C69.8995 42.1371 69.4147 42.4482 68.8586 42.6706C68.3025 42.893 67.6966 43.0034 67.0409 43.0034L67.0426 43ZM67.0426 42.1722C67.5655 42.1722 68.0485 42.0819 68.4934 41.903C68.9366 41.724 69.3234 41.4681 69.6521 41.137C69.9808 40.8059 70.2348 40.4229 70.4174 39.9831C70.6 39.5449 70.6913 39.0616 70.6913 38.5348C70.6913 38.008 70.6 37.5247 70.4174 37.0865C70.2348 36.6484 69.9791 36.2637 69.6521 35.9326C69.3234 35.6031 68.9383 35.3473 68.4934 35.1667C68.0485 34.9877 67.5655 34.8974 67.0426 34.8974C66.5197 34.8974 66.0333 34.9877 65.5868 35.1667C65.1386 35.3473 64.7501 35.6015 64.4231 35.9326C64.0961 36.2637 63.8388 36.6467 63.6512 37.0865C63.4636 37.5264 63.3707 38.008 63.3707 38.5348C63.3707 39.0616 63.4636 39.5349 63.6512 39.9764C63.8371 40.4196 64.0944 40.8059 64.4231 41.137C64.7501 41.4681 65.1386 41.7223 65.5868 41.903C66.035 42.0836 66.5197 42.1722 67.0426 42.1722Z" fill="white"/>
<path d="M82.3312 42.9247V34.1448H83.0915L87.0755 40.9931H86.6771L90.6229 34.1448H91.3832V42.9247H90.4984V35.5379H90.7093L87.0738 41.8093H86.6389L82.9786 35.5379H83.2143V42.9247H82.3296H82.3312Z" fill="white"/>
<path d="M106.683 43C106.028 43 105.42 42.8897 104.859 42.6672C104.298 42.4465 103.813 42.1321 103.402 41.7274C102.992 41.3227 102.671 40.8494 102.444 40.3092C102.215 39.7707 102.102 39.1787 102.102 38.5348C102.102 37.8909 102.216 37.2989 102.444 36.7604C102.671 36.2202 102.992 35.7486 103.402 35.3423C103.813 34.9375 104.296 34.6231 104.852 34.4024C105.409 34.1816 106.018 34.0696 106.683 34.0696C107.349 34.0696 107.945 34.18 108.501 34.4024C109.057 34.6248 109.54 34.9359 109.952 35.3372C110.364 35.7386 110.682 36.2119 110.912 36.7554C111.139 37.2989 111.253 37.8926 111.253 38.5365C111.253 39.1803 111.139 39.774 110.912 40.3176C110.682 40.8611 110.364 41.3344 109.952 41.7357C109.54 42.1371 109.057 42.4482 108.501 42.6706C107.945 42.893 107.339 43.0034 106.683 43.0034V43ZM106.683 42.1722C107.206 42.1722 107.689 42.0819 108.134 41.903C108.578 41.724 108.964 41.4681 109.293 41.137C109.62 40.8076 109.876 40.4229 110.058 39.9831C110.241 39.5449 110.332 39.0616 110.332 38.5348C110.332 38.008 110.241 37.5247 110.058 37.0865C109.876 36.6484 109.62 36.2637 109.293 35.9326C108.964 35.6031 108.579 35.3473 108.134 35.1667C107.691 34.9877 107.206 34.8974 106.683 34.8974C106.161 34.8974 105.674 34.9877 105.226 35.1667C104.778 35.3473 104.389 35.6015 104.062 35.9326C103.734 36.2637 103.476 36.6467 103.29 37.0865C103.105 37.5264 103.01 38.008 103.01 38.5348C103.01 39.0616 103.103 39.5349 103.29 39.9764C103.476 40.4196 103.734 40.8059 104.062 41.137C104.389 41.4681 104.778 41.7223 105.226 41.903C105.674 42.0836 106.159 42.1722 106.683 42.1722Z" fill="white"/>
<path d="M123.541 42.9247V34.9475H120.478V34.1448H127.525V34.9475H124.462V42.9247H123.541Z" fill="white"/>
<path d="M137.646 42.9247V34.1448H140.908C141.647 34.1448 142.281 34.2635 142.812 34.5027C143.343 34.7401 143.751 35.0846 144.039 35.5312C144.324 35.9794 144.469 36.5195 144.469 37.155C144.469 37.7905 144.326 38.3073 144.039 38.7538C143.753 39.202 143.343 39.5449 142.812 39.7823C142.281 40.0215 141.645 40.1402 140.908 40.1402H138.156L138.566 39.7138V42.9247H137.644H137.646ZM138.567 39.789L138.157 39.3509H140.883C141.754 39.3509 142.417 39.1585 142.868 38.7739C143.32 38.3893 143.547 37.8507 143.547 37.1567C143.547 36.4627 143.321 35.9108 142.868 35.5262C142.415 35.1415 141.754 34.9492 140.883 34.9492H138.157L138.567 34.511V39.7924V39.789ZM143.597 42.9247L141.356 39.7389H142.352L144.605 42.9247H143.597Z" fill="white"/>
<path d="M155.3 42.9247V34.1448H156.221V42.9247H155.3Z" fill="white"/>
<path d="M166.854 42.9247V42.2842L172.904 34.5963L173.004 34.9475H166.942V34.1448H173.851V34.7853L167.811 42.4732L167.699 42.122H173.998V42.9247H166.852H166.854Z" fill="white"/>
</g>
<defs>
<clipPath id="clip0_114_1073">
<rect width="174" height="43" fill="white"/>
</clipPath>
</defs>
</svg>
