<svg width="112" height="112" viewBox="0 0 112 112" fill="none" xmlns="http://www.w3.org/2000/svg">
<g clip-path="url(#clip0_109_2183)">
<path d="M52.5307 112C50.4813 111.717 48.4132 111.528 46.3849 111.135C28.5136 107.682 15.1038 98.0273 6.48514 81.9952C1.2377 72.2282 -0.916954 61.6734 0.358059 50.6558C2.6601 30.7268 12.6239 15.6508 30.4928 6.42385C46.9534 -2.07609 63.842 -2.01531 80.6512 5.85812C81.2009 6.11527 81.7273 6.42151 82.3707 6.76282C79.6452 9.47457 77.0273 12.1068 74.3603 14.6877C74.1498 14.8911 73.5508 14.8794 73.2233 14.7461C69.3913 13.1915 65.4352 12.1489 61.3248 11.6557C53.0968 10.6691 45.166 11.8216 37.6727 15.2885C24.4617 21.3969 16.0302 31.5964 12.4812 45.7068C7.59873 65.1146 17.0245 86.0745 34.7343 95.4347C57.095 107.254 84.0036 99.0863 95.7197 76.6863C101.997 64.6891 102.509 52.1917 97.5913 39.5423C97.1842 38.4973 97.2053 37.8521 98.0732 37.0316C100.532 34.7079 102.876 32.2626 105.424 29.7075C106.196 31.3649 106.959 32.8728 107.614 34.4274C109.958 40.0028 111.38 45.805 111.811 51.8433C111.834 52.1636 111.935 52.4769 112 52.7948V59.3498C111.935 59.6653 111.834 59.9809 111.811 60.3012C111.49 64.9322 110.655 69.4767 109.069 73.8296C101.718 93.9947 87.5292 106.403 66.5254 110.95C64.1555 111.464 61.7155 111.658 59.3081 112.002H52.5307V112Z" fill="#E40E20"/>
<path d="M81.7319 44.8865C85.5897 44.6434 89.5738 45.6229 92.6291 42.4786C97.8953 55.1608 95.7172 74.69 80.3165 86.9327C65.1988 98.9532 43.5633 98.0953 29.2224 84.9152C15.003 71.8474 12.5068 50.3684 23.5023 34.0722C34.2476 18.1477 54.1495 13.3928 69.6555 19.4545C66.4902 22.5239 67.4517 26.5191 67.2295 30.3693C59.4367 27.2531 51.7889 27.2367 44.2324 30.6825C38.6154 33.2447 34.3201 37.2772 31.3747 42.6914C25.4909 53.5033 27.3414 66.9008 35.8665 75.6088C44.56 84.4897 57.7499 86.6708 68.846 80.9855C75.3895 77.6332 79.9118 72.4201 82.3916 65.5168C84.8691 58.6206 84.5533 51.7454 81.7295 44.8818L81.7319 44.8865Z" fill="#E40E20"/>
<path d="M65.0116 35.5684C64.5016 35.9354 64.1367 36.1318 63.8559 36.4099C59.2893 40.9568 54.7226 45.5013 50.1817 50.0739C47.8235 52.4467 47.0679 55.3268 48.0177 58.506C48.9441 61.6059 51.1105 63.5859 54.2922 64.2522C57.3756 64.8974 60.0239 63.9483 62.2464 61.7181C66.7148 57.2297 71.2089 52.7646 75.6773 48.2739C75.9791 47.97 76.1475 47.5328 76.4727 47.0045C80.3796 55.64 78.4472 67.2561 69.4075 73.956C60.6579 80.4385 48.502 79.6694 40.639 72.1583C32.7479 64.6192 31.4659 52.456 37.6094 43.4324C43.5797 34.666 55.3356 31.1805 65.0093 35.5707L65.0116 35.5684Z" fill="#E40E20"/>
<path d="M95.2049 16.9274C97.9328 16.9274 100.48 16.9555 103.023 16.9157C104.413 16.8947 105.573 17.2384 106.144 18.6106C106.729 20.0156 106.165 21.1143 105.148 22.1242C99.8277 27.4098 94.5242 32.7094 89.2369 38.0277C88.383 38.8856 87.4355 39.283 86.2214 39.262C83.4187 39.2176 80.6136 39.2082 77.811 39.2807C77.2378 39.2947 76.5359 39.5822 76.1312 39.9843C70.2545 45.7936 64.4292 51.6519 58.5571 57.4681C58.012 58.0081 57.2984 58.4757 56.5755 58.7094C55.497 59.0578 54.3601 58.4944 53.7401 57.5569C53.1342 56.6382 53.1295 55.3899 53.7822 54.4758C54.0536 54.0948 54.3975 53.7582 54.7297 53.4239C60.5199 47.631 66.3078 41.8381 72.119 36.064C72.6477 35.538 72.8957 35.0214 72.884 34.2639C72.8396 31.426 72.8864 28.588 72.8559 25.75C72.8442 24.6606 73.1975 23.7886 73.9695 23.0195C79.362 17.6521 84.7428 12.2754 90.1119 6.8846C91.0734 5.92147 92.1473 5.45392 93.4574 5.97056C94.8377 6.51291 95.2307 7.65138 95.212 9.05167C95.1769 11.6278 95.2026 14.2017 95.2026 16.9274H95.2049Z" fill="#E40E20"/>
</g>
<defs>
<clipPath id="clip0_109_2183">
<rect width="112" height="112" fill="white"/>
</clipPath>
</defs>
</svg>
